<svg width="100" height="60" viewBox="0 0 100 60" fill="none" xmlns="http://www.w3.org/2000/svg">
<path d="M57.2658 39.9188C55.0276 45.9082 50.9082 51.0107 45.5253 54.4613C40.1423 57.9119 33.7859 59.5245 27.409 59.0577C21.0321 58.5907 14.9784 56.0693 10.1555 51.8714C5.3326 47.6735 2.0004 42.0253 0.658516 35.7738C-0.68337 29.5222 0.0373588 23.0041 2.71264 17.1967C5.38792 11.3893 9.87359 6.60562 15.4971 3.56282C21.1207 0.520006 27.579 -0.617941 33.9039 0.319586C40.2287 1.25711 46.0792 4.2196 50.5783 8.76287L43.1962 16.0731C40.2779 13.1261 36.4831 11.2046 32.3805 10.5965C28.278 9.98836 24.0888 10.7264 20.4412 12.7001C16.7936 14.6738 13.884 17.7767 12.1487 21.5436C10.4134 25.3105 9.94591 29.5384 10.8163 33.5934C11.6867 37.6484 13.8481 41.312 16.9764 44.035C20.1048 46.7578 24.0314 48.3934 28.1677 48.6962C32.304 48.9991 36.427 47.953 39.9186 45.7148C43.4102 43.4766 46.0822 40.167 47.534 36.282L57.2658 39.9188Z" fill="#FCFCFC"/>
<path d="M29.6794 35.8171C33.1247 35.7617 35.8726 32.9239 35.8172 29.4787C35.7618 26.0335 32.924 23.2855 29.4788 23.3409C26.0336 23.3963 23.2856 26.2341 23.341 29.6793C23.3964 33.1246 26.2342 35.8725 29.6794 35.8171Z" fill="#FCFCFC"/>
<path d="M72.7173 32.5991C72.4335 32.7942 72.0077 33.0337 71.44 33.3176C70.89 33.5837 70.2336 33.8143 69.4707 34.0095C68.7256 34.2046 67.9006 34.2933 66.9958 34.2756C65.4879 34.2578 64.1307 33.9917 62.9243 33.4772C61.7356 32.9627 60.7244 32.262 59.8906 31.3749C59.0568 30.4701 58.4092 29.4412 57.9479 28.288C57.5044 27.1171 57.2827 25.8752 57.2827 24.5624C57.2827 23.1076 57.5133 21.7771 57.9745 20.5707C58.4358 19.3465 59.0922 18.2821 59.9438 17.3773C60.8131 16.4725 61.8243 15.7717 62.9775 15.275C64.1484 14.7782 65.4258 14.5299 66.8096 14.5299C67.9982 14.5299 69.0715 14.6895 70.0295 15.0089C70.9876 15.3282 71.7948 15.7008 72.4512 16.1266L71.3335 18.7877C70.819 18.4329 70.1803 18.0958 69.4175 17.7765C68.6724 17.4394 67.8385 17.2708 66.916 17.2708C66.0112 17.2708 65.1508 17.4571 64.3347 17.8297C63.5363 18.1845 62.8267 18.6901 62.2058 19.3465C61.6026 19.9852 61.1236 20.7392 60.7688 21.6085C60.4139 22.4601 60.2365 23.3915 60.2365 24.4027C60.2365 25.4317 60.3962 26.3808 60.7155 27.2501C61.0349 28.1195 61.4873 28.8734 62.0727 29.5121C62.6759 30.1508 63.3944 30.6475 64.2282 31.0024C65.0621 31.3572 66.0023 31.5346 67.0491 31.5346C68.0426 31.5346 68.9119 31.3838 69.657 31.0822C70.4199 30.7806 71.0408 30.4347 71.5198 30.0443L72.7173 32.5991ZM76.9834 14.7428H89.6771V17.4837H79.8308V22.9923H88.586V25.7333H79.8308V31.3217H90.0497V34.0627H76.9834V14.7428ZM94.421 14.7428H97.2685V34.0627H94.421V14.7428Z" fill="#FCFCFC"/>
<path d="M60.3661 46.5641C60.5133 46.5843 60.6718 46.6017 60.8427 46.6161C60.99 46.6305 61.1573 46.6421 61.3448 46.6507C61.5352 46.6594 61.7363 46.6637 61.9468 46.6637C62.2271 46.6637 62.4495 46.6464 62.6139 46.6118C62.7783 46.5742 62.9042 46.5208 62.9906 46.4515C63.0775 46.3793 63.1325 46.2912 63.1555 46.1873C63.1816 46.0834 63.1946 45.9635 63.1946 45.8278C63.1946 45.721 63.1887 45.6242 63.1768 45.5376C63.1685 45.4481 63.1455 45.3687 63.1076 45.2994C63.0704 45.2301 63.0166 45.1709 62.9474 45.1218C62.8782 45.0698 62.783 45.028 62.6617 44.9962L61.401 44.667C61.2017 44.615 61.0331 44.5458 60.8942 44.4591C60.7558 44.3696 60.6434 44.257 60.5565 44.1213C60.4731 43.9856 60.411 43.8224 60.3702 43.6318C60.333 43.4384 60.314 43.2117 60.314 42.9518C60.314 42.6458 60.3602 42.3815 60.4524 42.1592C60.5453 41.934 60.6748 41.7492 60.8427 41.6048C61.013 41.4604 61.2176 41.3536 61.4577 41.2843C61.6972 41.215 61.9645 41.1803 62.259 41.1803C62.5045 41.1803 62.728 41.1948 62.9302 41.2237C63.1354 41.2496 63.3111 41.2785 63.4583 41.3103C63.6316 41.3478 63.7889 41.3897 63.9308 41.4359V42.2371C63.8007 42.2199 63.6635 42.204 63.5192 42.1895C63.395 42.1751 63.2549 42.1635 63.0988 42.1549C62.9462 42.1433 62.7871 42.1376 62.6227 42.1376C62.3655 42.1376 62.1549 42.1462 61.99 42.1635C61.8256 42.1808 61.6955 42.217 61.6003 42.2718C61.505 42.3267 61.4388 42.4046 61.401 42.5057C61.3637 42.6067 61.3448 42.741 61.3448 42.9085C61.3448 43.0009 61.3495 43.0832 61.3578 43.1554C61.3696 43.2276 61.3927 43.2911 61.427 43.3459C61.4648 43.4008 61.5169 43.4485 61.5831 43.4889C61.6523 43.5293 61.7445 43.5669 61.8605 43.6015L63.0343 43.9394C63.1845 43.9827 63.317 44.0289 63.4323 44.0779C63.5512 44.1242 63.6535 44.1805 63.7398 44.2469C63.8267 44.3104 63.9001 44.3855 63.961 44.4721C64.0243 44.5587 64.0751 44.6627 64.1124 44.784C64.1502 44.9024 64.1774 45.0424 64.1952 45.2041C64.2123 45.3658 64.2206 45.552 64.2206 45.7629C64.2206 46.092 64.1922 46.375 64.1343 46.6118C64.0793 46.8457 63.974 47.0377 63.8179 47.1878C63.6623 47.3351 63.4471 47.4434 63.1727 47.5127C62.9013 47.5849 62.5488 47.621 62.1159 47.621C61.7806 47.621 61.5021 47.6051 61.2797 47.5733C61.0603 47.5445 60.8811 47.5112 60.7428 47.4737C60.5843 47.4304 60.4583 47.3813 60.3661 47.3264V46.5641ZM65.4424 41.3059H66.482V47.4867H65.4424V41.3059ZM68.0586 41.3059H69.7824L72.0343 46.5208H72.0562C72.0532 46.4169 72.0503 46.3115 72.0473 46.2046C72.0444 46.1122 72.0432 46.0126 72.0432 45.9058C72.0432 45.7989 72.0432 45.6964 72.0432 45.5982V41.3059H73.0698V47.4867H71.385L69.479 43.1381C69.427 43.0168 69.3779 42.9042 69.3318 42.8002C69.2856 42.6963 69.2466 42.6053 69.2147 42.5274C69.1745 42.4349 69.1384 42.3498 69.1065 42.2718H69.0893V47.4867H68.0586V41.3059ZM74.6505 41.3059H78.3667V42.2718H75.6901V43.896H77.9338V44.8446H75.6901V46.5208H78.4406V47.4867H74.6505V41.3059ZM79.6316 41.3059H81.9314C82.0964 41.3059 82.2567 41.3175 82.4122 41.3406C82.5713 41.3608 82.7197 41.3983 82.8587 41.4532C83 41.508 83.1283 41.5831 83.2437 41.6784C83.3596 41.7708 83.4589 41.8907 83.5429 42.0379C83.6292 42.1852 83.696 42.3613 83.7422 42.5663C83.7883 42.7714 83.8114 43.0125 83.8114 43.2896C83.8114 43.4745 83.7954 43.6405 83.7635 43.7878C83.7351 43.9322 83.6943 44.0606 83.6422 44.1733C83.5932 44.2859 83.5358 44.384 83.469 44.4678C83.4057 44.5515 83.3406 44.6237 83.2744 44.6843C83.1153 44.8229 82.9361 44.9197 82.7369 44.9746V44.9832L84.0408 47.4867H82.8539L81.6978 45.2171H80.6712V47.4867H79.6316V41.3059ZM81.9231 44.2382C82.466 44.2382 82.7369 43.9018 82.7369 43.229C82.7369 43.0529 82.7168 42.9042 82.6765 42.7829C82.6387 42.6587 82.5825 42.5591 82.5074 42.484C82.4353 42.409 82.3471 42.3555 82.2437 42.3238C82.1396 42.2891 82.0237 42.2718 81.8971 42.2718H80.6712V44.2382H81.9231ZM84.9113 44.3378C84.9113 43.7459 84.9752 43.2493 85.1023 42.8479C85.2318 42.4436 85.4151 42.1188 85.6523 41.8733C85.8918 41.625 86.1792 41.4474 86.5139 41.3406C86.8492 41.2338 87.2241 41.1803 87.6405 41.1803C87.9202 41.1803 88.1703 41.1948 88.3897 41.2237C88.6121 41.2525 88.8025 41.2843 88.961 41.3189C89.1431 41.3594 89.3063 41.4041 89.4506 41.4532V42.2371C89.2945 42.2199 89.1272 42.2054 88.948 42.1938C88.7954 42.1823 88.6204 42.1722 88.424 42.1635C88.2277 42.152 88.0254 42.1462 87.8179 42.1462C87.4565 42.1462 87.1579 42.1852 86.9214 42.2632C86.6842 42.3382 86.4968 42.4624 86.3584 42.6357C86.2194 42.8089 86.1212 43.0355 86.0633 43.3157C86.0089 43.5928 85.9811 43.9336 85.9811 44.3378C85.9811 44.7507 86.0101 45.1045 86.068 45.399C86.1283 45.6907 86.2265 45.9303 86.3625 46.118C86.4979 46.3057 86.6771 46.4443 86.8995 46.5338C87.1218 46.6205 87.3962 46.6637 87.7227 46.6637C87.864 46.6637 87.9923 46.6594 88.1082 46.6507C88.2235 46.6421 88.3217 46.6305 88.4027 46.6161C88.4979 46.6017 88.5813 46.5843 88.6535 46.5641V44.9746H87.5275V44.026H89.6848V47.1922C89.5139 47.273 89.3282 47.3452 89.126 47.4088C88.9527 47.4636 88.7475 47.5127 88.511 47.556C88.2768 47.5993 88.0225 47.621 87.7487 47.621C87.301 47.621 86.9013 47.5704 86.5488 47.4694C86.1993 47.3683 85.903 47.1922 85.6606 46.9409C85.4181 46.6897 85.2318 46.3533 85.1023 45.9318C84.9752 45.5102 84.9113 44.9789 84.9113 44.3378ZM91.0491 41.3059H92.0881V47.4867H91.0491V41.3059ZM94.9426 41.3059H96.3199L98.343 47.4867H97.1952L96.6754 45.8105H94.5701L94.0722 47.4867H92.9373L94.9426 41.3059ZM96.3891 44.8792L95.6269 42.2632H95.6097L94.8474 44.8792H96.3891Z" fill="#FCFCFC"/>
<path d="M60.9231 50.2042C60.9231 50.0021 60.9473 49.8303 60.9958 49.6888C61.0461 49.5473 61.1123 49.4328 61.1963 49.3452C61.2809 49.2562 61.3802 49.1915 61.4932 49.1512C61.6067 49.1107 61.7274 49.0905 61.8551 49.0905C61.9533 49.0905 62.042 49.0972 62.12 49.1107C62.1981 49.1228 62.2649 49.1363 62.3199 49.1512C62.3844 49.1687 62.4405 49.1882 62.4879 49.2098V49.5412C62.4417 49.5372 62.3921 49.5325 62.3382 49.5271C62.2921 49.5244 62.2407 49.5217 62.1827 49.519C62.1248 49.515 62.0638 49.513 62.0006 49.513C61.8994 49.513 61.8125 49.5217 61.7398 49.5392C61.667 49.5567 61.6079 49.5904 61.5618 49.6403C61.5162 49.6888 61.4825 49.7582 61.4607 49.8485C61.4394 49.9374 61.4287 50.0546 61.4287 50.2002C61.4287 50.3484 61.4405 50.4683 61.4648 50.56C61.4908 50.6516 61.5292 50.723 61.5801 50.7742C61.6316 50.8241 61.6954 50.8578 61.7723 50.8753C61.8492 50.8914 61.9403 50.8995 62.0449 50.8995C62.1112 50.8995 62.1715 50.8982 62.2271 50.8955C62.2838 50.8914 62.3329 50.8867 62.3743 50.8813C62.4228 50.8759 62.4666 50.8692 62.5062 50.8612V51.1966C62.463 51.2209 62.4104 51.2425 62.3483 51.2613C62.2957 51.2775 62.2294 51.2923 62.1502 51.3058C62.0709 51.3193 61.9775 51.326 61.8711 51.326C61.7404 51.326 61.6174 51.3078 61.5015 51.2714C61.3867 51.2364 61.2862 51.1758 61.2005 51.0895C61.1153 51.0033 61.0479 50.8888 60.9982 50.7459C60.9479 50.6017 60.9231 50.4212 60.9231 50.2042ZM64.5316 50.2042C64.5316 50.0237 64.5511 49.864 64.5902 49.7252C64.6292 49.585 64.6901 49.4671 64.7723 49.3714C64.8557 49.2758 64.9609 49.203 65.0875 49.1532C65.2141 49.1033 65.366 49.0784 65.5423 49.0784C65.7191 49.0784 65.8705 49.1033 65.997 49.1532C66.1253 49.203 66.23 49.2758 66.3122 49.3714C66.3944 49.4671 66.4553 49.585 66.4944 49.7252C66.5334 49.864 66.5529 50.0237 66.5529 50.2042C66.5529 50.3848 66.5334 50.5458 66.4944 50.6873C66.4553 50.8274 66.3944 50.9454 66.3122 51.041C66.23 51.1367 66.1253 51.2095 65.997 51.2593C65.8705 51.3092 65.7191 51.3341 65.5423 51.3341C65.366 51.3341 65.2141 51.3092 65.0875 51.2593C64.9609 51.2095 64.8557 51.1367 64.7723 51.041C64.6901 50.9454 64.6292 50.8274 64.5902 50.6873C64.5511 50.5458 64.5316 50.3848 64.5316 50.2042ZM65.5423 50.9278C65.6487 50.9278 65.735 50.9123 65.8013 50.8813C65.8669 50.849 65.9184 50.8025 65.9544 50.7419C65.9911 50.6799 66.0154 50.6044 66.0272 50.5155C66.0408 50.4252 66.0479 50.3215 66.0479 50.2042C66.0479 50.0883 66.0408 49.9859 66.0272 49.897C66.0154 49.8067 65.9911 49.7312 65.9544 49.6706C65.9184 49.6086 65.8669 49.5621 65.8013 49.5311C65.735 49.4988 65.6487 49.4826 65.5423 49.4826C65.437 49.4826 65.3518 49.4988 65.2856 49.5311C65.2194 49.5621 65.1679 49.6086 65.1301 49.6706C65.0934 49.7312 65.0686 49.8067 65.055 49.897C65.0431 49.9859 65.0372 50.0883 65.0372 50.2042C65.0372 50.3215 65.0431 50.4252 65.055 50.5155C65.0686 50.6044 65.0934 50.6799 65.1301 50.7419C65.1679 50.8025 65.2194 50.849 65.2856 50.8813C65.3518 50.9123 65.437 50.9278 65.5423 50.9278ZM68.7345 49.139H69.0857L69.1449 49.2966C69.2188 49.2562 69.2998 49.2199 69.3873 49.1875C69.4624 49.1606 69.5494 49.1356 69.6481 49.1127C69.7463 49.0898 69.8515 49.0784 69.9633 49.0784C70.1732 49.0784 70.3282 49.1336 70.4281 49.2441C70.5292 49.3532 70.5795 49.5251 70.5795 49.7596V51.2714H70.1005V49.8182C70.1005 49.7629 70.0964 49.7157 70.0887 49.6766C70.0816 49.6363 70.0662 49.6039 70.042 49.5797C70.0177 49.5541 69.9828 49.5352 69.9367 49.5231C69.8912 49.5109 69.8297 49.5049 69.7528 49.5049C69.6724 49.5049 69.5984 49.5102 69.5328 49.521C69.4666 49.5305 69.4098 49.5406 69.3631 49.5513C69.3075 49.5648 69.2578 49.5797 69.2135 49.5958V51.2714H68.7345V49.139ZM73.5151 51.3341C73.395 51.3341 73.2892 51.3146 73.1975 51.2755C73.1076 51.2364 73.0319 51.1731 72.971 51.0855C72.9107 50.9966 72.864 50.8807 72.832 50.7379C72.8007 50.595 72.7847 50.4205 72.7835 50.2143C72.7806 50.0095 72.7954 49.835 72.8279 49.6908C72.8616 49.5466 72.9095 49.4294 72.971 49.3391C73.0349 49.2475 73.1112 49.1814 73.2016 49.141C73.2933 49.0992 73.3962 49.0784 73.5109 49.0784C73.6162 49.0784 73.712 49.0865 73.7977 49.1026C73.8841 49.1188 73.9592 49.1363 74.0224 49.1552C74.0964 49.1781 74.162 49.203 74.2182 49.23V48.1304H74.6996V51.2714H74.285L74.2566 51.1017C74.1963 51.1448 74.1277 51.1839 74.0508 51.2189C73.9846 51.2486 73.9059 51.2748 73.8143 51.2977C73.7238 51.3219 73.6239 51.3341 73.5151 51.3341ZM73.6848 50.9036C73.7546 50.9036 73.8214 50.8989 73.8847 50.8894C73.9497 50.8787 74.0071 50.8665 74.0568 50.853C74.1147 50.8382 74.1685 50.8207 74.2182 50.8005V49.5817C74.1632 49.5682 74.1047 49.5554 74.0426 49.5432C73.9899 49.5338 73.9296 49.5251 73.8604 49.517C73.793 49.5089 73.7238 49.5049 73.6523 49.5049C73.5783 49.5049 73.5174 49.5176 73.4707 49.5432C73.4234 49.5675 73.3861 49.6086 73.3595 49.6665C73.3323 49.7245 73.3134 49.8007 73.3028 49.895C73.2933 49.9893 73.2886 50.1059 73.2886 50.2447C73.2886 50.3646 73.2933 50.4663 73.3028 50.5499C73.3122 50.6334 73.3311 50.7014 73.3595 50.754C73.3879 50.8066 73.4275 50.8449 73.4784 50.8692C73.531 50.8921 73.5996 50.9036 73.6848 50.9036ZM77.0224 49.139H77.5015V50.5923C77.5015 50.6489 77.5044 50.6968 77.5115 50.7358C77.5198 50.7749 77.5358 50.8072 77.56 50.8328C77.5842 50.8571 77.6191 50.8753 77.6653 50.8874C77.7108 50.8982 77.7723 50.9036 77.8492 50.9036C77.9296 50.9036 78.0035 50.8995 78.0692 50.8914C78.1354 50.882 78.1922 50.8719 78.2389 50.8612C78.2945 50.8477 78.3442 50.8328 78.3885 50.8167V49.139H78.8675V51.2714H78.5162L78.4595 51.1138C78.3838 51.1555 78.3022 51.1926 78.2146 51.225C78.1395 51.2519 78.052 51.2768 77.9521 51.2998C77.8539 51.3227 77.7492 51.3341 77.6387 51.3341C77.4299 51.3341 77.275 51.2788 77.1738 51.1684C77.0727 51.0565 77.0224 50.8827 77.0224 50.6468V49.139ZM81.0508 50.2042C81.0508 50.0021 81.0751 49.8303 81.1236 49.6888C81.1738 49.5473 81.2407 49.4328 81.324 49.3452C81.4086 49.2562 81.508 49.1915 81.6209 49.1512C81.7345 49.1107 81.8551 49.0905 81.9828 49.0905C82.081 49.0905 82.1697 49.0972 82.2478 49.1107C82.3258 49.1228 82.3926 49.1363 82.4476 49.1512C82.5127 49.1687 82.5683 49.1882 82.6156 49.2098V49.5412C82.5695 49.5372 82.5198 49.5325 82.466 49.5271C82.4204 49.5244 82.3684 49.5217 82.3104 49.519C82.2525 49.515 82.1916 49.513 82.1283 49.513C82.0272 49.513 81.9402 49.5217 81.8675 49.5392C81.7948 49.5567 81.7356 49.5904 81.6901 49.6403C81.644 49.6888 81.6103 49.7582 81.589 49.8485C81.5671 49.9374 81.5565 50.0546 81.5565 50.2002C81.5565 50.3484 81.5683 50.4683 81.5925 50.56C81.6185 50.6516 81.657 50.723 81.7078 50.7742C81.7593 50.8241 81.8232 50.8578 81.9 50.8753C81.9769 50.8914 82.068 50.8995 82.1727 50.8995C82.2389 50.8995 82.2998 50.8982 82.3548 50.8955C82.4116 50.8914 82.4606 50.8867 82.5026 50.8813C82.5511 50.8759 82.5949 50.8692 82.6339 50.8612V51.1966C82.5907 51.2209 82.5381 51.2425 82.476 51.2613C82.4234 51.2775 82.3577 51.2923 82.2779 51.3058C82.1987 51.3193 82.1052 51.326 81.9988 51.326C81.8681 51.326 81.7451 51.3078 81.6292 51.2714C81.5145 51.2364 81.4145 51.1758 81.3282 51.0895C81.243 51.0033 81.1756 50.8888 81.1259 50.7459C81.0763 50.6017 81.0508 50.4212 81.0508 50.2042ZM84.6593 50.2042C84.6593 50.0021 84.6836 49.8303 84.7321 49.6888C84.7824 49.5473 84.8486 49.4328 84.9326 49.3452C85.0171 49.2562 85.1165 49.1915 85.2294 49.1512C85.3424 49.1107 85.463 49.0905 85.5913 49.0905C85.6895 49.0905 85.7776 49.0972 85.8563 49.1107C85.9343 49.1228 86.0012 49.1363 86.0562 49.1512C86.1206 49.1687 86.1768 49.1882 86.2241 49.2098V49.5412C86.178 49.5372 86.1283 49.5325 86.0745 49.5271C86.0284 49.5244 85.9769 49.5217 85.919 49.519C85.861 49.515 85.8001 49.513 85.7368 49.513C85.6357 49.513 85.5488 49.5217 85.476 49.5392C85.4033 49.5567 85.3442 49.5904 85.298 49.6403C85.2525 49.6888 85.2188 49.7582 85.1969 49.8485C85.1756 49.9374 85.165 50.0546 85.165 50.2002C85.165 50.3484 85.1768 50.4683 85.201 50.56C85.2265 50.6516 85.2649 50.723 85.3164 50.7742C85.3678 50.8241 85.4317 50.8578 85.5085 50.8753C85.5854 50.8914 85.6759 50.8995 85.7812 50.8995C85.8474 50.8995 85.9077 50.8982 85.9633 50.8955C86.0195 50.8914 86.0692 50.8867 86.1106 50.8813C86.1591 50.8759 86.2028 50.8692 86.2418 50.8612V51.1966C86.1993 51.2209 86.1466 51.2425 86.0845 51.2613C86.0319 51.2775 85.9657 51.2923 85.8864 51.3058C85.8066 51.3193 85.7138 51.326 85.6073 51.326C85.4766 51.326 85.3536 51.3078 85.2377 51.2714C85.123 51.2364 85.0224 51.1758 84.9361 51.0895C84.8515 51.0033 84.7841 50.8888 84.7345 50.7459C84.6842 50.6017 84.6593 50.4212 84.6593 50.2042ZM88.6901 48.7772C88.6351 48.7772 88.589 48.7732 88.5529 48.7651C88.518 48.757 88.489 48.7428 88.466 48.7226C88.4441 48.7024 88.4287 48.6748 88.4193 48.6397C88.4116 48.6047 88.4074 48.5596 88.4074 48.5043C88.4074 48.4491 88.4116 48.4039 88.4193 48.3689C88.4287 48.3325 88.4441 48.3036 88.466 48.282C88.489 48.2604 88.518 48.2456 88.5529 48.2375C88.589 48.2295 88.6351 48.2254 88.6901 48.2254C88.7457 48.2254 88.7906 48.2295 88.8255 48.2375C88.8622 48.2456 88.8912 48.2604 88.9125 48.282C88.9343 48.3036 88.9491 48.3325 88.9568 48.3689C88.9651 48.4039 88.9692 48.4491 88.9692 48.5043C88.9692 48.5596 88.9651 48.6047 88.9568 48.6397C88.9491 48.6748 88.9343 48.7024 88.9125 48.7226C88.8912 48.7428 88.8622 48.757 88.8255 48.7651C88.7906 48.7732 88.7457 48.7772 88.6901 48.7772ZM88.45 49.139H88.9308V51.2714H88.45V49.139ZM91.1443 50.2042C91.1443 50.0237 91.1638 49.864 91.2034 49.7252C91.2424 49.585 91.3028 49.4671 91.385 49.3714C91.4683 49.2758 91.5736 49.203 91.7002 49.1532C91.8273 49.1033 91.9787 49.0784 92.1549 49.0784C92.3317 49.0784 92.4831 49.1033 92.6097 49.1532C92.738 49.203 92.8433 49.2758 92.9255 49.3714C93.0077 49.4671 93.068 49.585 93.107 49.7252C93.146 49.864 93.1656 50.0237 93.1656 50.2042C93.1656 50.3848 93.146 50.5458 93.107 50.6873C93.068 50.8274 93.0077 50.9454 92.9255 51.041C92.8433 51.1367 92.738 51.2095 92.6097 51.2593C92.4831 51.3092 92.3317 51.3341 92.1549 51.3341C91.9787 51.3341 91.8273 51.3092 91.7002 51.2593C91.5736 51.2095 91.4683 51.1367 91.385 51.041C91.3028 50.9454 91.2424 50.8274 91.2034 50.6873C91.1638 50.5458 91.1443 50.3848 91.1443 50.2042ZM92.1549 50.9278C92.2614 50.9278 92.3477 50.9123 92.4139 50.8813C92.4802 50.849 92.531 50.8025 92.5677 50.7419C92.6038 50.6799 92.628 50.6044 92.6404 50.5155C92.6534 50.4252 92.6605 50.3215 92.6605 50.2042C92.6605 50.0883 92.6534 49.9859 92.6404 49.897C92.628 49.8067 92.6038 49.7312 92.5677 49.6706C92.531 49.6086 92.4802 49.5621 92.4139 49.5311C92.3477 49.4988 92.2614 49.4826 92.1549 49.4826C92.0502 49.4826 91.9645 49.4988 91.8983 49.5311C91.8326 49.5621 91.7806 49.6086 91.7427 49.6706C91.7067 49.7312 91.6812 49.8067 91.6682 49.897C91.6558 49.9859 91.6499 50.0883 91.6499 50.2042C91.6499 50.3215 91.6558 50.4252 91.6682 50.5155C91.6812 50.6044 91.7067 50.6799 91.7427 50.7419C91.7806 50.8025 91.8326 50.849 91.8983 50.8813C91.9645 50.9123 92.0502 50.9278 92.1549 50.9278ZM91.5789 48.6882L92.4039 47.9141C92.421 47.9235 92.4405 47.9364 92.4624 47.9525C92.4813 47.9674 92.502 47.9862 92.5251 48.0091C92.5494 48.032 92.576 48.061 92.6061 48.096C92.6316 48.127 92.6511 48.1553 92.6647 48.1809C92.6777 48.2065 92.6848 48.2308 92.6848 48.2537C92.6848 48.2873 92.6694 48.3217 92.6381 48.3568C92.6085 48.3905 92.5594 48.4322 92.4908 48.4821C92.4719 48.4956 92.4476 48.5124 92.4181 48.5326C92.3885 48.5528 92.3554 48.575 92.3187 48.5993C92.2826 48.6236 92.2442 48.6492 92.2034 48.6761C92.1632 48.7017 92.1236 48.7273 92.0845 48.7529C91.9917 48.8136 91.8923 48.8776 91.7871 48.9449L91.5789 48.6882ZM95.3471 49.139H95.699L95.7575 49.2966C95.8314 49.2562 95.9125 49.2199 96 49.1875C96.0757 49.1606 96.1626 49.1356 96.2608 49.1127C96.3589 49.0898 96.4642 49.0784 96.576 49.0784C96.7865 49.0784 96.9414 49.1336 97.0408 49.2441C97.1419 49.3532 97.1928 49.5251 97.1928 49.7596V51.2714H96.7138V49.8182C96.7138 49.7629 96.7096 49.7157 96.7013 49.6766C96.6948 49.6363 96.6789 49.6039 96.6546 49.5797C96.6304 49.5541 96.5955 49.5352 96.5499 49.5231C96.5038 49.5109 96.4429 49.5049 96.366 49.5049C96.285 49.5049 96.2117 49.5102 96.1455 49.521C96.0792 49.5305 96.023 49.5406 95.9757 49.5513C95.9207 49.5648 95.8705 49.5797 95.8261 49.5958V51.2714H95.3471V49.139Z" fill="#FCFCFC"/>
</svg>
